<svg id="svg" version="1.1" xmlns="http://www.w3.org/2000/svg" xmlns:xlink="http://www.w3.org/1999/xlink"
     preserveAspectRatio="xMidYMid meet" width="80" height="78" viewBox="0,0,400,400">
    <g id="svgg">
        <path id="path0"
              d="M198.336 92.800 C 198.044 93.460,197.669 94.000,197.502 94.000 C 197.336 94.000,197.200 94.360,197.200 94.800 C 197.200 95.240,197.020 95.600,196.800 95.600 C 196.580 95.600,196.400 95.878,196.400 96.217 C 196.400 96.556,196.040 97.220,195.600 97.692 C 195.160 98.164,194.800 98.787,194.800 99.075 C 194.800 99.364,194.620 99.600,194.400 99.600 C 194.180 99.600,194.000 99.960,194.000 100.400 C 194.000 100.840,193.820 101.200,193.600 101.200 C 193.380 101.200,193.200 101.520,193.200 101.912 C 193.200 102.303,192.840 102.883,192.400 103.200 C 191.960 103.517,191.600 104.097,191.600 104.488 C 191.600 104.880,191.420 105.200,191.200 105.200 C 190.980 105.200,190.800 105.560,190.800 106.000 C 190.800 106.440,190.620 106.800,190.400 106.800 C 190.180 106.800,190.000 107.120,190.000 107.512 C 190.000 107.903,189.640 108.483,189.200 108.800 C 188.760 109.117,188.400 109.697,188.400 110.088 C 188.400 110.480,188.220 110.800,188.000 110.800 C 187.780 110.800,187.600 111.078,187.600 111.417 C 187.600 111.756,187.240 112.420,186.800 112.892 C 186.360 113.364,186.000 113.987,186.000 114.275 C 186.000 114.564,185.820 114.800,185.600 114.800 C 185.380 114.800,185.200 115.160,185.200 115.600 C 185.200 116.040,185.020 116.400,184.800 116.400 C 184.580 116.400,184.400 116.678,184.400 117.017 C 184.400 117.356,184.040 118.020,183.600 118.492 C 183.160 118.964,182.800 119.587,182.800 119.875 C 182.800 120.164,182.620 120.400,182.400 120.400 C 182.180 120.400,182.000 120.760,182.000 121.200 C 182.000 121.640,181.820 122.000,181.600 122.000 C 181.380 122.000,181.200 122.320,181.200 122.712 C 181.200 123.103,180.840 123.683,180.400 124.000 C 179.960 124.317,179.600 124.897,179.600 125.288 C 179.600 125.680,179.420 126.000,179.200 126.000 C 178.980 126.000,178.800 126.360,178.800 126.800 C 178.800 127.240,178.620 127.600,178.400 127.600 C 178.180 127.600,178.000 127.920,178.000 128.312 C 178.000 128.703,177.640 129.283,177.200 129.600 C 176.760 129.917,176.400 130.497,176.400 130.888 C 176.400 131.280,176.220 131.600,176.000 131.600 C 175.780 131.600,175.600 131.960,175.600 132.400 C 175.600 132.840,175.420 133.200,175.200 133.200 C 174.980 133.200,174.800 133.520,174.800 133.912 C 174.800 134.303,174.440 134.883,174.000 135.200 C 173.560 135.517,173.200 136.097,173.200 136.488 C 173.200 136.880,173.020 137.200,172.800 137.200 C 172.580 137.200,172.400 137.478,172.400 137.817 C 172.400 138.156,172.040 138.820,171.600 139.292 C 171.160 139.764,170.800 140.387,170.800 140.675 C 170.800 140.964,170.620 141.200,170.400 141.200 C 170.180 141.200,170.000 141.560,170.000 142.000 C 170.000 142.440,169.820 142.800,169.600 142.800 C 169.380 142.800,169.200 143.078,169.200 143.417 C 169.200 143.756,168.840 144.420,168.400 144.892 C 167.960 145.364,167.600 145.987,167.600 146.275 C 167.600 146.564,167.420 146.800,167.200 146.800 C 166.980 146.800,166.800 147.160,166.800 147.600 C 166.800 148.040,166.620 148.400,166.400 148.400 C 166.180 148.400,166.000 148.720,166.000 149.112 C 166.000 149.503,165.640 150.083,165.200 150.400 C 164.760 150.717,164.400 151.297,164.400 151.688 C 164.400 152.080,164.220 152.400,164.000 152.400 C 163.780 152.400,163.600 152.760,163.600 153.200 C 163.600 153.640,163.420 154.000,163.200 154.000 C 162.980 154.000,162.800 154.320,162.800 154.712 C 162.800 155.103,162.440 155.683,162.000 156.000 C 161.560 156.317,161.200 156.897,161.200 157.288 C 161.200 157.680,161.020 158.000,160.800 158.000 C 160.580 158.000,160.400 158.278,160.400 158.617 C 160.400 158.956,160.040 159.620,159.600 160.092 C 159.160 160.564,158.800 161.187,158.800 161.475 C 158.800 161.764,158.620 162.000,158.400 162.000 C 158.180 162.000,158.000 162.360,158.000 162.800 C 158.000 163.240,157.820 163.600,157.600 163.600 C 157.380 163.600,157.200 163.878,157.200 164.217 C 157.200 164.556,156.840 165.220,156.400 165.692 C 155.960 166.164,155.600 166.787,155.600 167.075 C 155.600 167.364,155.420 167.600,155.200 167.600 C 154.980 167.600,154.800 167.960,154.800 168.400 C 154.800 168.840,154.620 169.200,154.400 169.200 C 154.180 169.200,154.000 169.520,154.000 169.912 C 154.000 170.303,153.640 170.883,153.200 171.200 C 152.760 171.517,152.400 172.097,152.400 172.488 C 152.400 172.880,152.220 173.200,152.000 173.200 C 151.780 173.200,151.600 173.560,151.600 174.000 C 151.600 174.440,151.420 174.800,151.200 174.800 C 150.980 174.800,150.800 175.120,150.800 175.512 C 150.800 175.903,150.440 176.483,150.000 176.800 C 149.560 177.117,149.200 177.697,149.200 178.088 C 149.200 178.480,149.020 178.800,148.800 178.800 C 148.580 178.800,148.400 179.160,148.400 179.600 C 148.400 180.040,148.220 180.400,148.000 180.400 C 147.780 180.400,147.600 180.720,147.600 181.112 C 147.600 181.503,147.240 182.083,146.800 182.400 C 146.360 182.717,146.000 183.297,146.000 183.688 C 146.000 184.080,145.820 184.400,145.600 184.400 C 145.380 184.400,145.200 184.678,145.200 185.017 C 145.200 185.356,144.840 186.020,144.400 186.492 C 143.960 186.964,143.600 187.587,143.600 187.875 C 143.600 188.164,143.420 188.400,143.200 188.400 C 142.980 188.400,142.800 188.760,142.800 189.200 C 142.800 189.640,142.620 190.000,142.400 190.000 C 142.180 190.000,142.000 190.278,142.000 190.617 C 142.000 190.956,141.640 191.620,141.200 192.092 C 140.760 192.564,140.400 193.187,140.400 193.475 C 140.400 193.764,140.220 194.000,140.000 194.000 C 139.780 194.000,139.600 194.360,139.600 194.800 C 139.600 195.240,139.420 195.600,139.200 195.600 C 138.980 195.600,138.800 195.920,138.800 196.312 C 138.800 196.703,138.440 197.283,138.000 197.600 C 137.560 197.917,137.200 198.497,137.200 198.888 C 137.200 199.280,137.020 199.600,136.800 199.600 C 136.580 199.600,136.400 199.960,136.400 200.400 C 136.400 200.840,136.220 201.200,136.000 201.200 C 135.780 201.200,135.600 201.520,135.600 201.912 C 135.600 202.303,135.240 202.883,134.800 203.200 C 134.360 203.517,134.000 204.097,134.000 204.488 C 134.000 204.880,133.820 205.200,133.600 205.200 C 133.380 205.200,133.200 205.560,133.200 206.000 C 133.200 206.440,133.020 206.800,132.800 206.800 C 132.580 206.800,132.400 207.120,132.400 207.512 C 132.400 207.903,132.040 208.483,131.600 208.800 C 131.160 209.117,130.800 209.697,130.800 210.088 C 130.800 210.480,130.620 210.800,130.400 210.800 C 130.180 210.800,130.000 211.078,130.000 211.417 C 130.000 211.756,129.640 212.420,129.200 212.892 C 128.760 213.364,128.400 213.987,128.400 214.275 C 128.400 214.564,128.220 214.800,128.000 214.800 C 127.780 214.800,127.600 215.160,127.600 215.600 C 127.600 216.040,127.420 216.400,127.200 216.400 C 126.980 216.400,126.800 216.720,126.800 217.112 C 126.800 217.503,126.440 218.083,126.000 218.400 C 125.560 218.717,125.200 219.297,125.200 219.688 C 125.200 220.080,125.020 220.400,124.800 220.400 C 124.580 220.400,124.400 220.760,124.400 221.200 C 124.400 221.640,124.220 222.000,124.000 222.000 C 123.780 222.000,123.600 222.320,123.600 222.712 C 123.600 223.103,123.240 223.683,122.800 224.000 C 122.360 224.317,122.000 224.897,122.000 225.288 C 122.000 225.680,121.820 226.000,121.600 226.000 C 121.380 226.000,121.200 226.360,121.200 226.800 C 121.200 227.240,121.020 227.600,120.800 227.600 C 120.580 227.600,120.400 227.920,120.400 228.312 C 120.400 228.703,120.040 229.283,119.600 229.600 C 119.160 229.917,118.800 230.497,118.800 230.888 C 118.800 231.280,118.620 231.600,118.400 231.600 C 118.180 231.600,118.000 231.878,118.000 232.217 C 118.000 232.556,117.640 233.220,117.200 233.692 C 116.760 234.164,116.400 234.787,116.400 235.075 C 116.400 235.364,116.220 235.600,116.000 235.600 C 115.780 235.600,115.600 235.960,115.600 236.400 C 115.600 236.840,115.420 237.200,115.200 237.200 C 114.980 237.200,114.800 237.478,114.800 237.817 C 114.800 238.156,114.440 238.820,114.000 239.292 C 113.560 239.764,113.200 240.387,113.200 240.675 C 113.200 240.964,113.020 241.200,112.800 241.200 C 112.580 241.200,112.400 241.560,112.400 242.000 C 112.400 242.440,112.220 242.800,112.000 242.800 C 111.780 242.800,111.600 243.120,111.600 243.512 C 111.600 243.903,111.240 244.483,110.800 244.800 C 110.360 245.117,110.000 245.697,110.000 246.088 C 110.000 246.480,109.820 246.800,109.600 246.800 C 109.380 246.800,109.200 247.160,109.200 247.600 C 109.200 248.040,109.020 248.400,108.800 248.400 C 108.580 248.400,108.400 248.720,108.400 249.112 C 108.400 249.503,108.040 250.083,107.600 250.400 C 107.160 250.717,106.800 251.297,106.800 251.688 C 106.800 252.080,106.620 252.400,106.400 252.400 C 106.180 252.400,106.000 252.760,106.000 253.200 C 106.000 253.640,105.820 254.000,105.600 254.000 C 105.380 254.000,105.200 254.320,105.200 254.712 C 105.200 255.103,104.840 255.683,104.400 256.000 C 103.960 256.317,103.600 256.897,103.600 257.288 C 103.600 257.680,103.420 258.000,103.200 258.000 C 102.980 258.000,102.800 258.278,102.800 258.617 C 102.800 258.956,102.440 259.620,102.000 260.092 C 101.560 260.564,101.200 261.187,101.200 261.475 C 101.200 261.764,101.020 262.000,100.800 262.000 C 100.580 262.000,100.400 262.360,100.400 262.800 C 100.400 263.240,100.220 263.600,100.000 263.600 C 99.780 263.600,99.600 263.878,99.600 264.217 C 99.600 264.556,99.240 265.220,98.800 265.692 C 98.360 266.164,98.000 266.787,98.000 267.075 C 98.000 267.364,97.820 267.600,97.600 267.600 C 97.380 267.600,97.200 267.960,97.200 268.400 C 97.200 268.840,97.020 269.200,96.800 269.200 C 96.580 269.200,96.400 269.520,96.400 269.912 C 96.400 270.303,96.040 270.883,95.600 271.200 C 95.160 271.517,94.800 272.097,94.800 272.488 C 94.800 272.880,94.620 273.200,94.400 273.200 C 94.180 273.200,94.000 273.560,94.000 274.000 C 94.000 274.440,93.820 274.800,93.600 274.800 C 93.380 274.800,93.200 275.120,93.200 275.512 C 93.200 275.903,92.840 276.483,92.400 276.800 C 91.960 277.117,91.600 277.697,91.600 278.088 C 91.600 278.480,91.420 278.800,91.200 278.800 C 90.980 278.800,90.800 279.078,90.800 279.417 C 90.800 279.756,90.440 280.420,90.000 280.892 C 89.560 281.364,89.200 281.987,89.200 282.275 C 89.200 282.564,89.020 282.800,88.800 282.800 C 88.580 282.800,88.400 283.160,88.400 283.600 C 88.400 284.040,88.220 284.400,88.000 284.400 C 87.780 284.400,87.600 284.678,87.600 285.017 C 87.600 285.356,87.240 286.020,86.800 286.492 C 86.360 286.964,86.000 287.587,86.000 287.875 C 86.000 288.164,85.820 288.400,85.600 288.400 C 85.380 288.400,85.200 288.760,85.200 289.200 C 85.200 289.640,85.020 290.000,84.800 290.000 C 84.580 290.000,84.400 290.320,84.400 290.712 C 84.400 291.103,84.040 291.683,83.600 292.000 C 83.160 292.317,82.800 292.897,82.800 293.288 C 82.800 293.680,82.620 294.000,82.400 294.000 C 82.180 294.000,82.000 294.360,82.000 294.800 C 82.000 295.240,81.820 295.600,81.600 295.600 C 81.380 295.600,81.200 295.920,81.200 296.312 C 81.200 296.703,80.840 297.283,80.400 297.600 C 79.960 297.917,79.600 298.497,79.600 298.888 C 79.600 299.280,79.420 299.600,79.200 299.600 C 78.980 299.600,78.800 299.960,78.800 300.400 C 78.800 300.840,78.620 301.200,78.400 301.200 C 78.180 301.200,78.000 301.520,78.000 301.912 C 78.000 302.303,77.640 302.883,77.200 303.200 C 76.760 303.517,76.400 304.097,76.400 304.488 C 76.400 304.880,76.220 305.200,76.000 305.200 C 75.780 305.200,75.600 305.560,75.600 306.000 C 75.600 306.440,75.420 306.800,75.200 306.800 C 74.980 306.800,74.800 307.160,74.800 307.600 C 74.800 308.393,75.067 308.400,106.366 308.400 L 137.933 308.400 138.464 307.200 C 138.756 306.540,139.131 306.000,139.298 306.000 C 139.464 306.000,139.600 305.640,139.600 305.200 C 139.600 304.760,139.780 304.400,140.000 304.400 C 140.220 304.400,140.400 304.122,140.400 303.783 C 140.400 303.444,140.760 302.780,141.200 302.308 C 141.640 301.836,142.000 301.213,142.000 300.925 C 142.000 300.636,142.180 300.400,142.400 300.400 C 142.620 300.400,142.800 300.040,142.800 299.600 C 142.800 299.160,142.980 298.800,143.200 298.800 C 143.420 298.800,143.600 298.480,143.600 298.088 C 143.600 297.697,143.960 297.117,144.400 296.800 C 144.840 296.483,145.200 295.903,145.200 295.512 C 145.200 295.120,145.380 294.800,145.600 294.800 C 145.820 294.800,146.000 294.440,146.000 294.000 C 146.000 293.560,146.180 293.200,146.400 293.200 C 146.620 293.200,146.800 292.880,146.800 292.488 C 146.800 292.097,147.160 291.517,147.600 291.200 C 148.040 290.883,148.400 290.303,148.400 289.912 C 148.400 289.520,148.580 289.200,148.800 289.200 C 149.020 289.200,149.200 288.840,149.200 288.400 C 149.200 287.960,149.380 287.600,149.600 287.600 C 149.820 287.600,150.000 287.280,150.000 286.888 C 150.000 286.497,150.360 285.917,150.800 285.600 C 151.240 285.283,151.600 284.703,151.600 284.312 C 151.600 283.920,151.780 283.600,152.000 283.600 C 152.220 283.600,152.400 283.322,152.400 282.983 C 152.400 282.644,152.760 281.980,153.200 281.508 C 153.640 281.036,154.000 280.413,154.000 280.125 C 154.000 279.836,154.180 279.600,154.400 279.600 C 154.620 279.600,154.800 279.240,154.800 278.800 C 154.800 278.360,154.980 278.000,155.200 278.000 C 155.420 278.000,155.600 277.722,155.600 277.383 C 155.600 277.044,155.960 276.380,156.400 275.908 C 156.840 275.436,157.200 274.813,157.200 274.525 C 157.200 274.236,157.380 274.000,157.600 274.000 C 157.820 274.000,158.000 273.640,158.000 273.200 C 158.000 272.760,158.180 272.400,158.400 272.400 C 158.620 272.400,158.800 272.080,158.800 271.688 C 158.800 271.297,159.160 270.717,159.600 270.400 C 160.040 270.083,160.400 269.503,160.400 269.112 C 160.400 268.720,160.580 268.400,160.800 268.400 C 161.020 268.400,161.200 268.040,161.200 267.600 C 161.200 267.160,161.380 266.800,161.600 266.800 C 161.820 266.800,162.000 266.480,162.000 266.088 C 162.000 265.697,162.360 265.117,162.800 264.800 C 163.240 264.483,163.600 263.903,163.600 263.512 C 163.600 263.120,163.780 262.800,164.000 262.800 C 164.220 262.800,164.400 262.480,164.400 262.088 C 164.400 261.697,164.760 261.117,165.200 260.800 C 165.640 260.483,166.000 259.903,166.000 259.512 C 166.000 259.120,166.180 258.800,166.400 258.800 C 166.620 258.800,166.800 258.440,166.800 258.000 C 166.800 257.560,166.980 257.200,167.200 257.200 C 167.420 257.200,167.600 256.880,167.600 256.488 C 167.600 256.097,167.960 255.517,168.400 255.200 C 168.840 254.883,169.200 254.303,169.200 253.912 C 169.200 253.520,169.380 253.200,169.600 253.200 C 169.820 253.200,170.000 252.922,170.000 252.583 C 170.000 252.244,170.360 251.580,170.800 251.108 C 171.240 250.636,171.600 250.013,171.600 249.725 C 171.600 249.436,171.780 249.200,172.000 249.200 C 172.220 249.200,172.400 248.840,172.400 248.400 C 172.400 247.960,172.580 247.600,172.800 247.600 C 173.020 247.600,173.200 247.322,173.200 246.983 C 173.200 246.644,173.560 245.980,174.000 245.508 C 174.440 245.036,174.800 244.413,174.800 244.125 C 174.800 243.836,174.980 243.600,175.200 243.600 C 175.420 243.600,175.600 243.240,175.600 242.800 C 175.600 242.360,175.780 242.000,176.000 242.000 C 176.220 242.000,176.400 241.680,176.400 241.288 C 176.400 240.897,176.760 240.317,177.200 240.000 C 177.640 239.683,178.000 239.103,178.000 238.712 C 178.000 238.320,178.180 238.000,178.400 238.000 C 178.620 238.000,178.800 237.640,178.800 237.200 C 178.800 236.760,178.980 236.400,179.200 236.400 C 179.420 236.400,179.600 236.080,179.600 235.688 C 179.600 235.297,179.960 234.717,180.400 234.400 C 180.840 234.083,181.200 233.503,181.200 233.112 C 181.200 232.720,181.380 232.400,181.600 232.400 C 181.820 232.400,182.000 232.040,182.000 231.600 C 182.000 231.160,182.180 230.800,182.400 230.800 C 182.620 230.800,182.800 230.480,182.800 230.088 C 182.800 229.697,183.160 229.117,183.600 228.800 C 184.040 228.483,184.400 227.903,184.400 227.512 C 184.400 227.120,184.580 226.800,184.800 226.800 C 185.020 226.800,185.200 226.440,185.200 226.000 C 185.200 225.560,185.380 225.200,185.600 225.200 C 185.820 225.200,186.000 224.880,186.000 224.488 C 186.000 224.097,186.360 223.517,186.800 223.200 C 187.240 222.883,187.600 222.303,187.600 221.912 C 187.600 221.520,187.780 221.200,188.000 221.200 C 188.220 221.200,188.400 220.922,188.400 220.583 C 188.400 220.244,188.760 219.580,189.200 219.108 C 189.640 218.636,190.000 218.013,190.000 217.725 C 190.000 217.436,190.180 217.200,190.400 217.200 C 190.620 217.200,190.800 216.840,190.800 216.400 C 190.800 215.960,190.980 215.600,191.200 215.600 C 191.420 215.600,191.600 215.322,191.600 214.983 C 191.600 214.644,191.960 213.980,192.400 213.508 C 192.840 213.036,193.200 212.413,193.200 212.125 C 193.200 211.836,193.380 211.600,193.600 211.600 C 193.820 211.600,194.000 211.240,194.000 210.800 C 194.000 210.360,194.180 210.000,194.400 210.000 C 194.620 210.000,194.800 209.680,194.800 209.288 C 194.800 208.897,195.160 208.317,195.600 208.000 C 196.040 207.683,196.400 207.103,196.400 206.712 C 196.400 206.320,196.580 206.000,196.800 206.000 C 197.020 206.000,197.200 205.640,197.200 205.200 C 197.200 204.760,197.380 204.400,197.600 204.400 C 197.820 204.400,198.000 204.080,198.000 203.688 C 198.000 203.297,198.360 202.717,198.800 202.400 C 199.240 202.083,199.600 201.503,199.600 201.112 C 199.600 200.720,199.780 200.400,200.000 200.400 C 200.220 200.400,200.400 200.636,200.400 200.925 C 200.400 201.213,200.760 201.836,201.200 202.308 C 201.640 202.780,202.000 203.444,202.000 203.783 C 202.000 204.122,202.180 204.400,202.400 204.400 C 202.620 204.400,202.800 204.720,202.800 205.112 C 202.800 205.503,203.160 206.083,203.600 206.400 C 204.040 206.717,204.400 207.297,204.400 207.688 C 204.400 208.080,204.580 208.400,204.800 208.400 C 205.020 208.400,205.200 208.760,205.200 209.200 C 205.200 209.640,205.380 210.000,205.600 210.000 C 205.820 210.000,206.000 210.320,206.000 210.712 C 206.000 211.103,206.360 211.683,206.800 212.000 C 207.240 212.317,207.600 212.897,207.600 213.288 C 207.600 213.680,207.780 214.000,208.000 214.000 C 208.220 214.000,208.400 214.360,208.400 214.800 C 208.400 215.240,208.580 215.600,208.800 215.600 C 209.020 215.600,209.200 215.920,209.200 216.312 C 209.200 216.703,209.560 217.283,210.000 217.600 C 210.440 217.917,210.800 218.497,210.800 218.888 C 210.800 219.280,210.980 219.600,211.200 219.600 C 211.420 219.600,211.600 219.960,211.600 220.400 C 211.600 220.840,211.780 221.200,212.000 221.200 C 212.220 221.200,212.400 221.436,212.400 221.725 C 212.400 222.013,212.760 222.636,213.200 223.108 C 213.640 223.580,214.000 224.244,214.000 224.583 C 214.000 224.922,214.180 225.200,214.400 225.200 C 214.620 225.200,214.800 225.560,214.800 226.000 C 214.800 226.440,214.980 226.800,215.200 226.800 C 215.420 226.800,215.600 227.036,215.600 227.325 C 215.600 227.613,215.960 228.236,216.400 228.708 C 216.840 229.180,217.200 229.844,217.200 230.183 C 217.200 230.522,217.380 230.800,217.600 230.800 C 217.820 230.800,218.000 231.120,218.000 231.512 C 218.000 231.903,218.360 232.483,218.800 232.800 C 219.240 233.117,219.600 233.697,219.600 234.088 C 219.600 234.480,219.780 234.800,220.000 234.800 C 220.220 234.800,220.400 235.160,220.400 235.600 C 220.400 236.040,220.580 236.400,220.800 236.400 C 221.020 236.400,221.200 236.720,221.200 237.112 C 221.200 237.503,221.560 238.083,222.000 238.400 C 222.440 238.717,222.800 239.297,222.800 239.688 C 222.800 240.080,222.980 240.400,223.200 240.400 C 223.420 240.400,223.600 240.760,223.600 241.200 C 223.600 241.640,223.780 242.000,224.000 242.000 C 224.220 242.000,224.400 242.320,224.400 242.712 C 224.400 243.103,224.760 243.683,225.200 244.000 C 225.640 244.317,226.000 244.897,226.000 245.288 C 226.000 245.680,226.180 246.000,226.400 246.000 C 226.620 246.000,226.800 246.360,226.800 246.800 C 226.800 247.240,226.980 247.600,227.200 247.600 C 227.420 247.600,227.600 247.920,227.600 248.312 C 227.600 248.703,227.960 249.283,228.400 249.600 C 228.840 249.917,229.200 250.497,229.200 250.888 C 229.200 251.280,229.380 251.600,229.600 251.600 C 229.820 251.600,230.000 251.960,230.000 252.400 C 230.000 252.840,230.180 253.200,230.400 253.200 C 230.620 253.200,230.800 253.436,230.800 253.725 C 230.800 254.013,231.160 254.636,231.600 255.108 C 232.040 255.580,232.400 256.244,232.400 256.583 C 232.400 256.922,232.580 257.200,232.800 257.200 C 233.020 257.200,233.200 257.520,233.200 257.912 C 233.200 258.303,233.560 258.883,234.000 259.200 C 234.440 259.517,234.800 260.097,234.800 260.488 C 234.800 260.880,234.980 261.200,235.200 261.200 C 235.420 261.200,235.600 261.560,235.600 262.000 C 235.600 262.440,235.780 262.800,236.000 262.800 C 236.220 262.800,236.400 263.036,236.400 263.325 C 236.400 263.613,236.760 264.236,237.200 264.708 C 237.640 265.180,238.000 265.844,238.000 266.183 C 238.000 266.522,238.180 266.800,238.400 266.800 C 238.620 266.800,238.800 267.120,238.800 267.512 C 238.800 267.903,239.160 268.483,239.600 268.800 C 240.040 269.117,240.400 269.697,240.400 270.088 C 240.400 270.480,240.580 270.800,240.800 270.800 C 241.020 270.800,241.200 271.083,241.200 271.429 C 241.200 273.102,241.853 273.200,252.971 273.200 L 263.600 273.200 263.600 272.000 C 263.600 271.340,263.420 270.800,263.200 270.800 C 262.980 270.800,262.800 270.440,262.800 270.000 C 262.800 269.560,262.620 269.200,262.400 269.200 C 262.180 269.200,262.000 268.840,262.000 268.400 C 262.000 267.960,261.820 267.600,261.600 267.600 C 261.380 267.600,261.200 267.364,261.200 267.075 C 261.200 266.787,260.840 266.164,260.400 265.692 C 259.960 265.220,259.600 264.556,259.600 264.217 C 259.600 263.878,259.420 263.600,259.200 263.600 C 258.980 263.600,258.800 263.280,258.800 262.888 C 258.800 262.497,258.440 261.917,258.000 261.600 C 257.560 261.283,257.200 260.703,257.200 260.312 C 257.200 259.920,257.020 259.600,256.800 259.600 C 256.580 259.600,256.400 259.240,256.400 258.800 C 256.400 258.360,256.220 258.000,256.000 258.000 C 255.780 258.000,255.600 257.680,255.600 257.288 C 255.600 256.897,255.240 256.317,254.800 256.000 C 254.360 255.683,254.000 255.103,254.000 254.712 C 254.000 254.320,253.820 254.000,253.600 254.000 C 253.380 254.000,253.200 253.640,253.200 253.200 C 253.200 252.760,253.020 252.400,252.800 252.400 C 252.580 252.400,252.400 252.080,252.400 251.688 C 252.400 251.297,252.040 250.717,251.600 250.400 C 251.160 250.083,250.800 249.503,250.800 249.112 C 250.800 248.720,250.620 248.400,250.400 248.400 C 250.180 248.400,250.000 248.040,250.000 247.600 C 250.000 247.160,249.820 246.800,249.600 246.800 C 249.380 246.800,249.200 246.564,249.200 246.275 C 249.200 245.987,248.840 245.364,248.400 244.892 C 247.960 244.420,247.600 243.756,247.600 243.417 C 247.600 243.078,247.420 242.800,247.200 242.800 C 246.980 242.800,246.800 242.440,246.800 242.000 C 246.800 241.560,246.620 241.200,246.400 241.200 C 246.180 241.200,246.000 240.964,246.000 240.675 C 246.000 240.387,245.640 239.764,245.200 239.292 C 244.760 238.820,244.400 238.156,244.400 237.817 C 244.400 237.478,244.220 237.200,244.000 237.200 C 243.780 237.200,243.600 236.880,243.600 236.488 C 243.600 236.097,243.240 235.517,242.800 235.200 C 242.360 234.883,242.000 234.303,242.000 233.912 C 242.000 233.520,241.820 233.200,241.600 233.200 C 241.380 233.200,241.200 232.840,241.200 232.400 C 241.200 231.960,241.020 231.600,240.800 231.600 C 240.580 231.600,240.400 231.280,240.400 230.888 C 240.400 230.497,240.040 229.917,239.600 229.600 C 239.160 229.283,238.800 228.703,238.800 228.312 C 238.800 227.920,238.620 227.600,238.400 227.600 C 238.180 227.600,238.000 227.240,238.000 226.800 C 238.000 226.360,237.820 226.000,237.600 226.000 C 237.380 226.000,237.200 225.680,237.200 225.288 C 237.200 224.897,236.840 224.317,236.400 224.000 C 235.960 223.683,235.600 223.103,235.600 222.712 C 235.600 222.320,235.420 222.000,235.200 222.000 C 234.980 222.000,234.800 221.640,234.800 221.200 C 234.800 220.760,234.620 220.400,234.400 220.400 C 234.180 220.400,234.000 220.164,234.000 219.875 C 234.000 219.587,233.640 218.964,233.200 218.492 C 232.760 218.020,232.400 217.356,232.400 217.017 C 232.400 216.678,232.220 216.400,232.000 216.400 C 231.780 216.400,231.600 216.040,231.600 215.600 C 231.600 215.160,231.420 214.800,231.200 214.800 C 230.980 214.800,230.800 214.564,230.800 214.275 C 230.800 213.987,230.440 213.364,230.000 212.892 C 229.560 212.420,229.200 211.756,229.200 211.417 C 229.200 211.078,229.020 210.800,228.800 210.800 C 228.580 210.800,228.400 210.480,228.400 210.088 C 228.400 209.697,228.040 209.117,227.600 208.800 C 227.160 208.483,226.800 207.903,226.800 207.512 C 226.800 207.120,226.620 206.800,226.400 206.800 C 226.180 206.800,226.000 206.440,226.000 206.000 C 226.000 205.560,225.820 205.200,225.600 205.200 C 225.380 205.200,225.200 204.880,225.200 204.488 C 225.200 204.097,224.840 203.517,224.400 203.200 C 223.960 202.883,223.600 202.303,223.600 201.912 C 223.600 201.520,223.420 201.200,223.200 201.200 C 222.980 201.200,222.800 200.840,222.800 200.400 C 222.800 199.960,222.620 199.600,222.400 199.600 C 222.180 199.600,222.000 199.364,222.000 199.075 C 222.000 198.787,221.640 198.164,221.200 197.692 C 220.760 197.220,220.400 196.556,220.400 196.217 C 220.400 195.878,220.220 195.600,220.000 195.600 C 219.780 195.600,219.600 195.240,219.600 194.800 C 219.600 194.360,219.420 194.000,219.200 194.000 C 218.980 194.000,218.800 193.764,218.800 193.475 C 218.800 193.187,218.440 192.564,218.000 192.092 C 217.560 191.620,217.200 190.956,217.200 190.617 C 217.200 190.278,217.020 190.000,216.800 190.000 C 216.580 190.000,216.400 189.680,216.400 189.288 C 216.400 188.897,216.040 188.317,215.600 188.000 C 215.160 187.683,214.800 187.103,214.800 186.712 C 214.800 186.320,214.620 186.000,214.400 186.000 C 214.180 186.000,214.000 185.640,214.000 185.200 C 214.000 184.760,213.820 184.400,213.600 184.400 C 213.380 184.400,213.200 184.080,213.200 183.688 C 213.200 183.297,212.840 182.717,212.400 182.400 C 211.960 182.083,211.600 181.503,211.600 181.112 C 211.600 180.720,211.420 180.400,211.200 180.400 C 210.980 180.400,210.800 180.040,210.800 179.600 C 210.800 179.160,210.620 178.800,210.400 178.800 C 210.180 178.800,210.000 178.480,210.000 178.088 C 210.000 177.697,209.640 177.117,209.200 176.800 C 208.760 176.483,208.400 175.903,208.400 175.512 C 208.400 175.120,208.220 174.800,208.000 174.800 C 207.780 174.800,207.600 174.440,207.600 174.000 C 207.600 173.560,207.420 173.200,207.200 173.200 C 206.980 173.200,206.800 172.964,206.800 172.675 C 206.800 172.387,206.440 171.764,206.000 171.292 C 205.560 170.820,205.200 170.156,205.200 169.817 C 205.200 169.478,205.020 169.200,204.800 169.200 C 204.580 169.200,204.400 168.840,204.400 168.400 C 204.400 167.960,204.220 167.600,204.000 167.600 C 203.780 167.600,203.600 167.364,203.600 167.075 C 203.600 166.787,203.240 166.164,202.800 165.692 C 202.360 165.220,202.000 164.556,202.000 164.217 C 202.000 163.878,201.820 163.600,201.600 163.600 C 201.380 163.600,201.200 163.240,201.200 162.800 C 201.200 162.206,200.933 162.000,200.163 162.000 C 199.462 162.000,199.057 162.259,198.916 162.800 C 198.801 163.240,198.548 163.600,198.353 163.600 C 198.159 163.600,198.000 163.960,198.000 164.400 C 198.000 164.840,197.820 165.200,197.600 165.200 C 197.380 165.200,197.200 165.478,197.200 165.817 C 197.200 166.156,196.840 166.820,196.400 167.292 C 195.960 167.764,195.600 168.387,195.600 168.675 C 195.600 168.964,195.420 169.200,195.200 169.200 C 194.980 169.200,194.800 169.560,194.800 170.000 C 194.800 170.440,194.620 170.800,194.400 170.800 C 194.180 170.800,194.000 171.120,194.000 171.512 C 194.000 171.903,193.640 172.483,193.200 172.800 C 192.760 173.117,192.400 173.697,192.400 174.088 C 192.400 174.480,192.220 174.800,192.000 174.800 C 191.780 174.800,191.600 175.160,191.600 175.600 C 191.600 176.040,191.420 176.400,191.200 176.400 C 190.980 176.400,190.800 176.720,190.800 177.112 C 190.800 177.503,190.440 178.083,190.000 178.400 C 189.560 178.717,189.200 179.297,189.200 179.688 C 189.200 180.080,189.020 180.400,188.800 180.400 C 188.580 180.400,188.400 180.760,188.400 181.200 C 188.400 181.640,188.220 182.000,188.000 182.000 C 187.780 182.000,187.600 182.320,187.600 182.712 C 187.600 183.103,187.240 183.683,186.800 184.000 C 186.360 184.317,186.000 184.897,186.000 185.288 C 186.000 185.680,185.820 186.000,185.600 186.000 C 185.380 186.000,185.200 186.278,185.200 186.617 C 185.200 186.956,184.840 187.620,184.400 188.092 C 183.960 188.564,183.600 189.187,183.600 189.475 C 183.600 189.764,183.420 190.000,183.200 190.000 C 182.980 190.000,182.800 190.360,182.800 190.800 C 182.800 191.240,182.620 191.600,182.400 191.600 C 182.180 191.600,182.000 191.920,182.000 192.312 C 182.000 192.703,181.640 193.283,181.200 193.600 C 180.760 193.917,180.400 194.497,180.400 194.888 C 180.400 195.280,180.220 195.600,180.000 195.600 C 179.780 195.600,179.600 195.960,179.600 196.400 C 179.600 196.840,179.420 197.200,179.200 197.200 C 178.980 197.200,178.800 197.520,178.800 197.912 C 178.800 198.303,178.440 198.883,178.000 199.200 C 177.560 199.517,177.200 200.097,177.200 200.488 C 177.200 200.880,177.020 201.200,176.800 201.200 C 176.580 201.200,176.400 201.560,176.400 202.000 C 176.400 202.440,176.220 202.800,176.000 202.800 C 175.780 202.800,175.600 203.120,175.600 203.512 C 175.600 203.903,175.240 204.483,174.800 204.800 C 174.360 205.117,174.000 205.697,174.000 206.088 C 174.000 206.480,173.820 206.800,173.600 206.800 C 173.380 206.800,173.200 207.078,173.200 207.417 C 173.200 207.756,172.840 208.420,172.400 208.892 C 171.960 209.364,171.600 209.987,171.600 210.275 C 171.600 210.564,171.420 210.800,171.200 210.800 C 170.980 210.800,170.800 211.160,170.800 211.600 C 170.800 212.040,170.620 212.400,170.400 212.400 C 170.180 212.400,170.000 212.678,170.000 213.017 C 170.000 213.356,169.640 214.020,169.200 214.492 C 168.760 214.964,168.400 215.587,168.400 215.875 C 168.400 216.164,168.220 216.400,168.000 216.400 C 167.780 216.400,167.600 216.760,167.600 217.200 C 167.600 217.640,167.420 218.000,167.200 218.000 C 166.980 218.000,166.800 218.320,166.800 218.712 C 166.800 219.103,166.440 219.683,166.000 220.000 C 165.560 220.317,165.200 220.897,165.200 221.288 C 165.200 221.680,165.020 222.000,164.800 222.000 C 164.580 222.000,164.400 222.360,164.400 222.800 C 164.400 223.240,164.220 223.600,164.000 223.600 C 163.780 223.600,163.600 223.920,163.600 224.312 C 163.600 224.703,163.240 225.283,162.800 225.600 C 162.360 225.917,162.000 226.497,162.000 226.888 C 162.000 227.280,161.820 227.600,161.600 227.600 C 161.380 227.600,161.200 227.878,161.200 228.217 C 161.200 228.556,160.840 229.220,160.400 229.692 C 159.960 230.164,159.600 230.787,159.600 231.075 C 159.600 231.364,159.420 231.600,159.200 231.600 C 158.980 231.600,158.800 231.960,158.800 232.400 C 158.800 232.840,158.620 233.200,158.400 233.200 C 158.180 233.200,158.000 233.478,158.000 233.817 C 158.000 234.156,157.640 234.820,157.200 235.292 C 156.760 235.764,156.400 236.387,156.400 236.675 C 156.400 236.964,156.220 237.200,156.000 237.200 C 155.780 237.200,155.600 237.560,155.600 238.000 C 155.600 238.440,155.420 238.800,155.200 238.800 C 154.980 238.800,154.800 239.120,154.800 239.512 C 154.800 239.903,154.440 240.483,154.000 240.800 C 153.560 241.117,153.200 241.697,153.200 242.088 C 153.200 242.480,153.020 242.800,152.800 242.800 C 152.580 242.800,152.400 243.160,152.400 243.600 C 152.400 244.040,152.220 244.400,152.000 244.400 C 151.780 244.400,151.600 244.720,151.600 245.112 C 151.600 245.503,151.240 246.083,150.800 246.400 C 150.360 246.717,150.000 247.297,150.000 247.688 C 150.000 248.080,149.820 248.400,149.600 248.400 C 149.380 248.400,149.200 248.760,149.200 249.200 C 149.200 249.640,149.020 250.000,148.800 250.000 C 148.580 250.000,148.400 250.320,148.400 250.712 C 148.400 251.103,148.040 251.683,147.600 252.000 C 147.160 252.317,146.800 252.897,146.800 253.288 C 146.800 253.680,146.620 254.000,146.400 254.000 C 146.180 254.000,146.000 254.278,146.000 254.617 C 146.000 254.956,145.640 255.620,145.200 256.092 C 144.760 256.564,144.400 257.187,144.400 257.475 C 144.400 257.764,144.220 258.000,144.000 258.000 C 143.780 258.000,143.600 258.360,143.600 258.800 C 143.600 259.240,143.420 259.600,143.200 259.600 C 142.980 259.600,142.800 259.878,142.800 260.217 C 142.800 260.556,142.440 261.220,142.000 261.692 C 141.560 262.164,141.200 262.787,141.200 263.075 C 141.200 263.364,141.020 263.600,140.800 263.600 C 140.580 263.600,140.400 263.960,140.400 264.400 C 140.400 264.840,140.220 265.200,140.000 265.200 C 139.780 265.200,139.600 265.520,139.600 265.912 C 139.600 266.303,139.240 266.883,138.800 267.200 C 138.360 267.517,138.000 268.097,138.000 268.488 C 138.000 268.880,137.820 269.200,137.600 269.200 C 137.380 269.200,137.200 269.560,137.200 270.000 C 137.200 270.440,137.020 270.800,136.800 270.800 C 136.580 270.800,136.400 271.120,136.400 271.512 C 136.400 271.903,136.040 272.483,135.600 272.800 C 135.160 273.117,134.800 273.697,134.800 274.088 C 134.800 274.480,134.620 274.800,134.400 274.800 C 134.180 274.800,134.000 275.160,134.000 275.600 C 134.000 276.040,133.820 276.400,133.600 276.400 C 133.380 276.400,133.200 276.720,133.200 277.112 C 133.200 277.503,132.840 278.083,132.400 278.400 C 131.960 278.717,131.600 279.297,131.600 279.688 C 131.600 280.080,131.420 280.400,131.200 280.400 C 130.980 280.400,130.800 280.678,130.800 281.017 C 130.800 281.356,130.440 282.020,130.000 282.492 C 129.560 282.964,129.200 283.587,129.200 283.875 C 129.200 284.164,129.020 284.400,128.800 284.400 C 128.580 284.400,128.400 284.760,128.400 285.200 C 128.400 285.640,128.220 286.000,128.000 286.000 C 127.780 286.000,127.600 286.269,127.600 286.597 C 127.600 286.925,127.208 287.645,126.728 288.197 L 125.856 289.200 117.128 289.200 C 108.667 289.200,108.400 289.176,108.400 288.400 C 108.400 287.960,108.580 287.600,108.800 287.600 C 109.020 287.600,109.200 287.240,109.200 286.800 C 109.200 286.360,109.380 286.000,109.600 286.000 C 109.820 286.000,110.000 285.680,110.000 285.288 C 110.000 284.897,110.360 284.317,110.800 284.000 C 111.240 283.683,111.600 283.103,111.600 282.712 C 111.600 282.320,111.780 282.000,112.000 282.000 C 112.220 282.000,112.400 281.722,112.400 281.383 C 112.400 281.044,112.760 280.380,113.200 279.908 C 113.640 279.436,114.000 278.813,114.000 278.525 C 114.000 278.236,114.180 278.000,114.400 278.000 C 114.620 278.000,114.800 277.640,114.800 277.200 C 114.800 276.760,114.980 276.400,115.200 276.400 C 115.420 276.400,115.600 276.122,115.600 275.783 C 115.600 275.444,115.960 274.780,116.400 274.308 C 116.840 273.836,117.200 273.213,117.200 272.925 C 117.200 272.636,117.380 272.400,117.600 272.400 C 117.820 272.400,118.000 272.040,118.000 271.600 C 118.000 271.160,118.180 270.800,118.400 270.800 C 118.620 270.800,118.800 270.480,118.800 270.088 C 118.800 269.697,119.160 269.117,119.600 268.800 C 120.040 268.483,120.400 267.903,120.400 267.512 C 120.400 267.120,120.580 266.800,120.800 266.800 C 121.020 266.800,121.200 266.440,121.200 266.000 C 121.200 265.560,121.380 265.200,121.600 265.200 C 121.820 265.200,122.000 264.880,122.000 264.488 C 122.000 264.097,122.360 263.517,122.800 263.200 C 123.240 262.883,123.600 262.303,123.600 261.912 C 123.600 261.520,123.780 261.200,124.000 261.200 C 124.220 261.200,124.400 260.922,124.400 260.583 C 124.400 260.244,124.760 259.580,125.200 259.108 C 125.640 258.636,126.000 258.013,126.000 257.725 C 126.000 257.436,126.180 257.200,126.400 257.200 C 126.620 257.200,126.800 256.840,126.800 256.400 C 126.800 255.960,126.980 255.600,127.200 255.600 C 127.420 255.600,127.600 255.322,127.600 254.983 C 127.600 254.644,127.960 253.980,128.400 253.508 C 128.840 253.036,129.200 252.413,129.200 252.125 C 129.200 251.836,129.380 251.600,129.600 251.600 C 129.820 251.600,130.000 251.240,130.000 250.800 C 130.000 250.360,130.180 250.000,130.400 250.000 C 130.620 250.000,130.800 249.680,130.800 249.288 C 130.800 248.897,131.160 248.317,131.600 248.000 C 132.040 247.683,132.400 247.103,132.400 246.712 C 132.400 246.320,132.580 246.000,132.800 246.000 C 133.020 246.000,133.200 245.640,133.200 245.200 C 133.200 244.760,133.380 244.400,133.600 244.400 C 133.820 244.400,134.000 244.080,134.000 243.688 C 134.000 243.297,134.360 242.717,134.800 242.400 C 135.240 242.083,135.600 241.503,135.600 241.112 C 135.600 240.720,135.780 240.400,136.000 240.400 C 136.220 240.400,136.400 240.040,136.400 239.600 C 136.400 239.160,136.580 238.800,136.800 238.800 C 137.020 238.800,137.200 238.480,137.200 238.088 C 137.200 237.697,137.560 237.117,138.000 236.800 C 138.440 236.483,138.800 235.903,138.800 235.512 C 138.800 235.120,138.980 234.800,139.200 234.800 C 139.420 234.800,139.600 234.522,139.600 234.183 C 139.600 233.844,139.960 233.180,140.400 232.708 C 140.840 232.236,141.200 231.613,141.200 231.325 C 141.200 231.036,141.380 230.800,141.600 230.800 C 141.820 230.800,142.000 230.440,142.000 230.000 C 142.000 229.560,142.180 229.200,142.400 229.200 C 142.620 229.200,142.800 228.880,142.800 228.488 C 142.800 228.097,143.160 227.517,143.600 227.200 C 144.040 226.883,144.400 226.303,144.400 225.912 C 144.400 225.520,144.580 225.200,144.800 225.200 C 145.020 225.200,145.200 224.840,145.200 224.400 C 145.200 223.960,145.380 223.600,145.600 223.600 C 145.820 223.600,146.000 223.280,146.000 222.888 C 146.000 222.497,146.360 221.917,146.800 221.600 C 147.240 221.283,147.600 220.703,147.600 220.312 C 147.600 219.920,147.780 219.600,148.000 219.600 C 148.220 219.600,148.400 219.240,148.400 218.800 C 148.400 218.360,148.580 218.000,148.800 218.000 C 149.020 218.000,149.200 217.680,149.200 217.288 C 149.200 216.897,149.560 216.317,150.000 216.000 C 150.440 215.683,150.800 215.103,150.800 214.712 C 150.800 214.320,150.980 214.000,151.200 214.000 C 151.420 214.000,151.600 213.722,151.600 213.383 C 151.600 213.044,151.960 212.380,152.400 211.908 C 152.840 211.436,153.200 210.813,153.200 210.525 C 153.200 210.236,153.380 210.000,153.600 210.000 C 153.820 210.000,154.000 209.640,154.000 209.200 C 154.000 208.760,154.180 208.400,154.400 208.400 C 154.620 208.400,154.800 208.122,154.800 207.783 C 154.800 207.444,155.160 206.780,155.600 206.308 C 156.040 205.836,156.400 205.213,156.400 204.925 C 156.400 204.636,156.580 204.400,156.800 204.400 C 157.020 204.400,157.200 204.040,157.200 203.600 C 157.200 203.160,157.380 202.800,157.600 202.800 C 157.820 202.800,158.000 202.480,158.000 202.088 C 158.000 201.697,158.360 201.117,158.800 200.800 C 159.240 200.483,159.600 199.903,159.600 199.512 C 159.600 199.120,159.780 198.800,160.000 198.800 C 160.220 198.800,160.400 198.440,160.400 198.000 C 160.400 197.560,160.580 197.200,160.800 197.200 C 161.020 197.200,161.200 196.880,161.200 196.488 C 161.200 196.097,161.560 195.517,162.000 195.200 C 162.440 194.883,162.800 194.303,162.800 193.912 C 162.800 193.520,162.980 193.200,163.200 193.200 C 163.420 193.200,163.600 192.922,163.600 192.583 C 163.600 192.244,163.960 191.580,164.400 191.108 C 164.840 190.636,165.200 190.013,165.200 189.725 C 165.200 189.436,165.380 189.200,165.600 189.200 C 165.820 189.200,166.000 188.840,166.000 188.400 C 166.000 187.960,166.180 187.600,166.400 187.600 C 166.620 187.600,166.800 187.322,166.800 186.983 C 166.800 186.644,167.160 185.980,167.600 185.508 C 168.040 185.036,168.400 184.413,168.400 184.125 C 168.400 183.836,168.580 183.600,168.800 183.600 C 169.020 183.600,169.200 183.240,169.200 182.800 C 169.200 182.360,169.380 182.000,169.600 182.000 C 169.820 182.000,170.000 181.680,170.000 181.288 C 170.000 180.897,170.360 180.317,170.800 180.000 C 171.240 179.683,171.600 179.103,171.600 178.712 C 171.600 178.320,171.780 178.000,172.000 178.000 C 172.220 178.000,172.400 177.640,172.400 177.200 C 172.400 176.760,172.580 176.400,172.800 176.400 C 173.020 176.400,173.200 176.080,173.200 175.688 C 173.200 175.297,173.560 174.717,174.000 174.400 C 174.440 174.083,174.800 173.503,174.800 173.112 C 174.800 172.720,174.980 172.400,175.200 172.400 C 175.420 172.400,175.600 172.040,175.600 171.600 C 175.600 171.160,175.780 170.800,176.000 170.800 C 176.220 170.800,176.400 170.480,176.400 170.088 C 176.400 169.697,176.760 169.117,177.200 168.800 C 177.640 168.483,178.000 167.903,178.000 167.512 C 178.000 167.120,178.180 166.800,178.400 166.800 C 178.620 166.800,178.800 166.522,178.800 166.183 C 178.800 165.844,179.160 165.180,179.600 164.708 C 180.040 164.236,180.400 163.613,180.400 163.325 C 180.400 163.036,180.580 162.800,180.800 162.800 C 181.020 162.800,181.200 162.440,181.200 162.000 C 181.200 161.560,181.380 161.200,181.600 161.200 C 181.820 161.200,182.000 160.880,182.000 160.488 C 182.000 160.097,182.360 159.517,182.800 159.200 C 183.240 158.883,183.600 158.303,183.600 157.912 C 183.600 157.520,183.780 157.200,184.000 157.200 C 184.220 157.200,184.400 156.840,184.400 156.400 C 184.400 155.960,184.580 155.600,184.800 155.600 C 185.020 155.600,185.200 155.280,185.200 154.888 C 185.200 154.497,185.560 153.917,186.000 153.600 C 186.440 153.283,186.800 152.703,186.800 152.312 C 186.800 151.920,186.980 151.600,187.200 151.600 C 187.420 151.600,187.600 151.240,187.600 150.800 C 187.600 150.360,187.780 150.000,188.000 150.000 C 188.220 150.000,188.400 149.680,188.400 149.288 C 188.400 148.897,188.760 148.317,189.200 148.000 C 189.640 147.683,190.000 147.103,190.000 146.712 C 190.000 146.320,190.180 146.000,190.400 146.000 C 190.620 146.000,190.800 145.722,190.800 145.383 C 190.800 145.044,191.160 144.380,191.600 143.908 C 192.040 143.436,192.400 142.813,192.400 142.525 C 192.400 142.236,192.580 142.000,192.800 142.000 C 193.020 142.000,193.200 141.640,193.200 141.200 C 193.200 140.760,193.380 140.400,193.600 140.400 C 193.820 140.400,194.000 140.122,194.000 139.783 C 194.000 139.444,194.360 138.780,194.800 138.308 C 195.240 137.836,195.600 137.213,195.600 136.925 C 195.600 136.636,195.780 136.400,196.000 136.400 C 196.220 136.400,196.400 136.040,196.400 135.600 C 196.400 135.160,196.580 134.800,196.800 134.800 C 197.020 134.800,197.200 134.480,197.200 134.088 C 197.200 133.697,197.560 133.117,198.000 132.800 C 198.440 132.483,198.800 131.903,198.800 131.512 C 198.800 131.120,198.980 130.800,199.200 130.800 C 199.420 130.800,199.600 130.440,199.600 130.000 C 199.600 129.560,199.780 129.200,200.000 129.200 C 200.220 129.200,200.400 129.520,200.400 129.912 C 200.400 130.303,200.760 130.883,201.200 131.200 C 201.640 131.517,202.000 132.097,202.000 132.488 C 202.000 132.880,202.180 133.200,202.400 133.200 C 202.620 133.200,202.800 133.560,202.800 134.000 C 202.800 134.440,202.980 134.800,203.200 134.800 C 203.420 134.800,203.600 135.120,203.600 135.512 C 203.600 135.903,203.960 136.483,204.400 136.800 C 204.840 137.117,205.200 137.697,205.200 138.088 C 205.200 138.480,205.380 138.800,205.600 138.800 C 205.820 138.800,206.000 139.160,206.000 139.600 C 206.000 140.040,206.180 140.400,206.400 140.400 C 206.620 140.400,206.800 140.720,206.800 141.112 C 206.800 141.503,207.160 142.083,207.600 142.400 C 208.040 142.717,208.400 143.297,208.400 143.688 C 208.400 144.080,208.580 144.400,208.800 144.400 C 209.020 144.400,209.200 144.760,209.200 145.200 C 209.200 145.640,209.380 146.000,209.600 146.000 C 209.820 146.000,210.000 146.236,210.000 146.525 C 210.000 146.813,210.360 147.436,210.800 147.908 C 211.240 148.380,211.600 149.044,211.600 149.383 C 211.600 149.722,211.780 150.000,212.000 150.000 C 212.220 150.000,212.400 150.320,212.400 150.712 C 212.400 151.103,212.760 151.683,213.200 152.000 C 213.640 152.317,214.000 152.897,214.000 153.288 C 214.000 153.680,214.180 154.000,214.400 154.000 C 214.620 154.000,214.800 154.360,214.800 154.800 C 214.800 155.240,214.980 155.600,215.200 155.600 C 215.420 155.600,215.600 155.920,215.600 156.312 C 215.600 156.703,215.960 157.283,216.400 157.600 C 216.840 157.917,217.200 158.497,217.200 158.888 C 217.200 159.280,217.380 159.600,217.600 159.600 C 217.820 159.600,218.000 159.960,218.000 160.400 C 218.000 160.840,218.180 161.200,218.400 161.200 C 218.620 161.200,218.800 161.520,218.800 161.912 C 218.800 162.303,219.160 162.883,219.600 163.200 C 220.040 163.517,220.400 164.097,220.400 164.488 C 220.400 164.880,220.580 165.200,220.800 165.200 C 221.020 165.200,221.200 165.560,221.200 166.000 C 221.200 166.440,221.380 166.800,221.600 166.800 C 221.820 166.800,222.000 167.036,222.000 167.325 C 222.000 167.613,222.360 168.236,222.800 168.708 C 223.240 169.180,223.600 169.844,223.600 170.183 C 223.600 170.522,223.780 170.800,224.000 170.800 C 224.220 170.800,224.400 171.160,224.400 171.600 C 224.400 172.040,224.580 172.400,224.800 172.400 C 225.020 172.400,225.200 172.636,225.200 172.925 C 225.200 173.213,225.560 173.836,226.000 174.308 C 226.440 174.780,226.800 175.444,226.800 175.783 C 226.800 176.122,226.980 176.400,227.200 176.400 C 227.420 176.400,227.600 176.720,227.600 177.112 C 227.600 177.503,227.960 178.083,228.400 178.400 C 228.840 178.717,229.200 179.297,229.200 179.688 C 229.200 180.080,229.380 180.400,229.600 180.400 C 229.820 180.400,230.000 180.760,230.000 181.200 C 230.000 181.640,230.180 182.000,230.400 182.000 C 230.620 182.000,230.800 182.320,230.800 182.712 C 230.800 183.103,231.160 183.683,231.600 184.000 C 232.040 184.317,232.400 184.897,232.400 185.288 C 232.400 185.680,232.580 186.000,232.800 186.000 C 233.020 186.000,233.200 186.360,233.200 186.800 C 233.200 187.240,233.380 187.600,233.600 187.600 C 233.820 187.600,234.000 187.836,234.000 188.125 C 234.000 188.413,234.360 189.036,234.800 189.508 C 235.240 189.980,235.600 190.644,235.600 190.983 C 235.600 191.322,235.780 191.600,236.000 191.600 C 236.220 191.600,236.400 191.960,236.400 192.400 C 236.400 192.840,236.580 193.200,236.800 193.200 C 237.020 193.200,237.200 193.436,237.200 193.725 C 237.200 194.013,237.560 194.636,238.000 195.108 C 238.440 195.580,238.800 196.244,238.800 196.583 C 238.800 196.922,238.980 197.200,239.200 197.200 C 239.420 197.200,239.600 197.560,239.600 198.000 C 239.600 198.440,239.780 198.800,240.000 198.800 C 240.220 198.800,240.400 199.036,240.400 199.325 C 240.400 199.613,240.760 200.236,241.200 200.708 C 241.640 201.180,242.000 201.844,242.000 202.183 C 242.000 202.522,242.180 202.800,242.400 202.800 C 242.620 202.800,242.800 203.120,242.800 203.512 C 242.800 203.903,243.160 204.483,243.600 204.800 C 244.040 205.117,244.400 205.697,244.400 206.088 C 244.400 206.480,244.580 206.800,244.800 206.800 C 245.020 206.800,245.200 207.160,245.200 207.600 C 245.200 208.040,245.380 208.400,245.600 208.400 C 245.820 208.400,246.000 208.720,246.000 209.112 C 246.000 209.503,246.360 210.083,246.800 210.400 C 247.240 210.717,247.600 211.297,247.600 211.688 C 247.600 212.080,247.780 212.400,248.000 212.400 C 248.220 212.400,248.400 212.760,248.400 213.200 C 248.400 213.640,248.580 214.000,248.800 214.000 C 249.020 214.000,249.200 214.236,249.200 214.525 C 249.200 214.813,249.560 215.436,250.000 215.908 C 250.440 216.380,250.800 217.044,250.800 217.383 C 250.800 217.722,250.980 218.000,251.200 218.000 C 251.420 218.000,251.600 218.320,251.600 218.712 C 251.600 219.103,251.960 219.683,252.400 220.000 C 252.840 220.317,253.200 220.897,253.200 221.288 C 253.200 221.680,253.380 222.000,253.600 222.000 C 253.820 222.000,254.000 222.360,254.000 222.800 C 254.000 223.240,254.180 223.600,254.400 223.600 C 254.620 223.600,254.800 223.920,254.800 224.312 C 254.800 224.703,255.160 225.283,255.600 225.600 C 256.040 225.917,256.400 226.497,256.400 226.888 C 256.400 227.280,256.580 227.600,256.800 227.600 C 257.020 227.600,257.200 227.960,257.200 228.400 C 257.200 228.840,257.380 229.200,257.600 229.200 C 257.820 229.200,258.000 229.520,258.000 229.912 C 258.000 230.303,258.360 230.883,258.800 231.200 C 259.240 231.517,259.600 232.097,259.600 232.488 C 259.600 232.880,259.780 233.200,260.000 233.200 C 260.220 233.200,260.400 233.560,260.400 234.000 C 260.400 234.440,260.580 234.800,260.800 234.800 C 261.020 234.800,261.200 235.036,261.200 235.325 C 261.200 235.613,261.560 236.236,262.000 236.708 C 262.440 237.180,262.800 237.844,262.800 238.183 C 262.800 238.522,262.980 238.800,263.200 238.800 C 263.420 238.800,263.600 239.160,263.600 239.600 C 263.600 240.040,263.780 240.400,264.000 240.400 C 264.220 240.400,264.400 240.636,264.400 240.925 C 264.400 241.213,264.760 241.836,265.200 242.308 C 265.640 242.780,266.000 243.444,266.000 243.783 C 266.000 244.122,266.180 244.400,266.400 244.400 C 266.620 244.400,266.800 244.720,266.800 245.112 C 266.800 245.503,267.160 246.083,267.600 246.400 C 268.040 246.717,268.400 247.297,268.400 247.688 C 268.400 248.080,268.580 248.400,268.800 248.400 C 269.020 248.400,269.200 248.760,269.200 249.200 C 269.200 249.640,269.380 250.000,269.600 250.000 C 269.820 250.000,270.000 250.320,270.000 250.712 C 270.000 251.103,270.360 251.683,270.800 252.000 C 271.240 252.317,271.600 252.897,271.600 253.288 C 271.600 253.680,271.780 254.000,272.000 254.000 C 272.220 254.000,272.400 254.360,272.400 254.800 C 272.400 255.240,272.580 255.600,272.800 255.600 C 273.020 255.600,273.200 255.836,273.200 256.125 C 273.200 256.413,273.560 257.036,274.000 257.508 C 274.440 257.980,274.800 258.644,274.800 258.983 C 274.800 259.322,274.980 259.600,275.200 259.600 C 275.420 259.600,275.600 259.960,275.600 260.400 C 275.600 260.840,275.780 261.200,276.000 261.200 C 276.220 261.200,276.400 261.436,276.400 261.725 C 276.400 262.013,276.760 262.636,277.200 263.108 C 277.640 263.580,278.000 264.244,278.000 264.583 C 278.000 264.922,278.180 265.200,278.400 265.200 C 278.620 265.200,278.800 265.520,278.800 265.912 C 278.800 266.303,279.160 266.883,279.600 267.200 C 280.040 267.517,280.400 268.097,280.400 268.488 C 280.400 268.880,280.580 269.200,280.800 269.200 C 281.020 269.200,281.200 269.560,281.200 270.000 C 281.200 270.440,281.380 270.800,281.600 270.800 C 281.820 270.800,282.000 271.120,282.000 271.512 C 282.000 271.903,282.360 272.483,282.800 272.800 C 283.240 273.117,283.600 273.697,283.600 274.088 C 283.600 274.480,283.780 274.800,284.000 274.800 C 284.220 274.800,284.400 275.160,284.400 275.600 C 284.400 276.040,284.580 276.400,284.800 276.400 C 285.020 276.400,285.200 276.720,285.200 277.112 C 285.200 277.503,285.560 278.083,286.000 278.400 C 286.440 278.717,286.800 279.297,286.800 279.688 C 286.800 280.080,286.980 280.400,287.200 280.400 C 287.420 280.400,287.600 280.760,287.600 281.200 C 287.600 281.640,287.780 282.000,288.000 282.000 C 288.220 282.000,288.400 282.236,288.400 282.525 C 288.400 282.813,288.760 283.436,289.200 283.908 C 289.640 284.380,290.000 285.044,290.000 285.383 C 290.000 285.722,290.180 286.000,290.400 286.000 C 290.620 286.000,290.800 286.320,290.800 286.712 C 290.800 287.103,291.160 287.683,291.600 288.000 C 292.040 288.317,292.400 288.717,292.400 288.888 C 292.400 289.060,278.900 289.200,262.400 289.200 C 232.667 289.200,232.400 289.193,232.400 288.400 C 232.400 287.960,232.220 287.600,232.000 287.600 C 231.780 287.600,231.600 287.240,231.600 286.800 C 231.600 286.360,231.420 286.000,231.200 286.000 C 230.980 286.000,230.800 285.680,230.800 285.288 C 230.800 284.897,230.440 284.317,230.000 284.000 C 229.560 283.683,229.200 283.103,229.200 282.712 C 229.200 282.320,229.020 282.000,228.800 282.000 C 228.580 282.000,228.400 281.640,228.400 281.200 C 228.400 280.760,228.220 280.400,228.000 280.400 C 227.780 280.400,227.600 280.164,227.600 279.875 C 227.600 279.587,227.240 278.964,226.800 278.492 C 226.360 278.020,226.000 277.356,226.000 277.017 C 226.000 276.678,225.820 276.400,225.600 276.400 C 225.380 276.400,225.200 276.080,225.200 275.688 C 225.200 275.297,224.840 274.717,224.400 274.400 C 223.960 274.083,223.600 273.503,223.600 273.112 C 223.600 272.720,223.420 272.400,223.200 272.400 C 222.980 272.400,222.800 272.040,222.800 271.600 C 222.800 271.160,222.620 270.800,222.400 270.800 C 222.180 270.800,222.000 270.480,222.000 270.088 C 222.000 269.697,221.640 269.117,221.200 268.800 C 220.760 268.483,220.400 267.903,220.400 267.512 C 220.400 267.120,220.220 266.800,220.000 266.800 C 219.780 266.800,219.600 266.440,219.600 266.000 C 219.600 265.560,219.420 265.200,219.200 265.200 C 218.980 265.200,218.800 264.964,218.800 264.675 C 218.800 264.387,218.440 263.764,218.000 263.292 C 217.560 262.820,217.200 262.156,217.200 261.817 C 217.200 261.478,217.020 261.200,216.800 261.200 C 216.580 261.200,216.400 260.840,216.400 260.400 C 216.400 259.960,216.220 259.600,216.000 259.600 C 215.780 259.600,215.600 259.364,215.600 259.075 C 215.600 258.787,215.240 258.164,214.800 257.692 C 214.360 257.220,214.000 256.556,214.000 256.217 C 214.000 255.878,213.820 255.600,213.600 255.600 C 213.380 255.600,213.200 255.280,213.200 254.888 C 213.200 254.497,212.840 253.917,212.400 253.600 C 211.960 253.283,211.600 252.703,211.600 252.312 C 211.600 251.920,211.420 251.600,211.200 251.600 C 210.980 251.600,210.800 251.240,210.800 250.800 C 210.800 250.360,210.620 250.000,210.400 250.000 C 210.180 250.000,210.000 249.680,210.000 249.288 C 210.000 248.897,209.640 248.317,209.200 248.000 C 208.760 247.683,208.400 247.103,208.400 246.712 C 208.400 246.320,208.220 246.000,208.000 246.000 C 207.780 246.000,207.600 245.640,207.600 245.200 C 207.600 244.760,207.420 244.400,207.200 244.400 C 206.980 244.400,206.800 244.164,206.800 243.875 C 206.800 243.587,206.440 242.964,206.000 242.492 C 205.560 242.020,205.200 241.356,205.200 241.017 C 205.200 240.678,205.020 240.400,204.800 240.400 C 204.580 240.400,204.400 240.040,204.400 239.600 C 204.400 239.160,204.220 238.800,204.000 238.800 C 203.780 238.800,203.600 238.564,203.600 238.275 C 203.600 237.987,203.240 237.364,202.800 236.892 C 202.360 236.420,202.000 235.756,202.000 235.417 C 202.000 235.078,201.820 234.800,201.600 234.800 C 201.380 234.800,201.200 234.440,201.200 234.000 C 201.200 233.406,200.933 233.200,200.163 233.200 C 199.462 233.200,199.057 233.459,198.916 234.000 C 198.801 234.440,198.548 234.800,198.353 234.800 C 198.159 234.800,198.000 235.160,198.000 235.600 C 198.000 236.040,197.820 236.400,197.600 236.400 C 197.380 236.400,197.200 236.678,197.200 237.017 C 197.200 237.356,196.840 238.020,196.400 238.492 C 195.960 238.964,195.600 239.587,195.600 239.875 C 195.600 240.164,195.420 240.400,195.200 240.400 C 194.980 240.400,194.800 240.760,194.800 241.200 C 194.800 241.640,194.620 242.000,194.400 242.000 C 194.180 242.000,194.000 242.320,194.000 242.712 C 194.000 243.103,193.640 243.683,193.200 244.000 C 192.760 244.317,192.400 244.897,192.400 245.288 C 192.400 245.680,192.220 246.000,192.000 246.000 C 191.780 246.000,191.600 246.360,191.600 246.800 C 191.600 247.240,191.420 247.600,191.200 247.600 C 190.980 247.600,190.800 247.920,190.800 248.312 C 190.800 248.703,190.440 249.283,190.000 249.600 C 189.560 249.917,189.200 250.497,189.200 250.888 C 189.200 251.280,189.020 251.600,188.800 251.600 C 188.580 251.600,188.400 251.878,188.400 252.217 C 188.400 252.556,188.040 253.220,187.600 253.692 C 187.160 254.164,186.800 254.787,186.800 255.075 C 186.800 255.364,186.620 255.600,186.400 255.600 C 186.180 255.600,186.000 255.960,186.000 256.400 C 186.000 256.840,185.820 257.200,185.600 257.200 C 185.380 257.200,185.200 257.520,185.200 257.912 C 185.200 258.303,184.840 258.883,184.400 259.200 C 183.960 259.517,183.600 260.097,183.600 260.488 C 183.600 260.880,183.420 261.200,183.200 261.200 C 182.980 261.200,182.800 261.560,182.800 262.000 C 182.800 262.440,182.620 262.800,182.400 262.800 C 182.180 262.800,182.000 263.120,182.000 263.512 C 182.000 263.903,181.640 264.483,181.200 264.800 C 180.760 265.117,180.400 265.697,180.400 266.088 C 180.400 266.480,180.220 266.800,180.000 266.800 C 179.780 266.800,179.600 267.078,179.600 267.417 C 179.600 267.756,179.240 268.420,178.800 268.892 C 178.360 269.364,178.000 269.987,178.000 270.275 C 178.000 270.564,177.820 270.800,177.600 270.800 C 177.380 270.800,177.200 271.160,177.200 271.600 C 177.200 272.040,177.020 272.400,176.800 272.400 C 176.580 272.400,176.400 272.678,176.400 273.017 C 176.400 273.356,176.040 274.020,175.600 274.492 C 175.160 274.964,174.800 275.587,174.800 275.875 C 174.800 276.164,174.620 276.400,174.400 276.400 C 174.180 276.400,174.000 276.760,174.000 277.200 C 174.000 277.640,173.820 278.000,173.600 278.000 C 173.380 278.000,173.200 278.320,173.200 278.712 C 173.200 279.103,172.840 279.683,172.400 280.000 C 171.960 280.317,171.600 280.897,171.600 281.288 C 171.600 281.680,171.420 282.000,171.200 282.000 C 170.980 282.000,170.800 282.360,170.800 282.800 C 170.800 283.240,170.620 283.600,170.400 283.600 C 170.180 283.600,170.000 283.920,170.000 284.312 C 170.000 284.703,169.640 285.283,169.200 285.600 C 168.760 285.917,168.400 286.497,168.400 286.888 C 168.400 287.280,168.220 287.600,168.000 287.600 C 167.780 287.600,167.600 287.878,167.600 288.217 C 167.600 288.556,167.240 289.220,166.800 289.692 C 166.360 290.164,166.000 290.787,166.000 291.075 C 166.000 291.364,165.820 291.600,165.600 291.600 C 165.380 291.600,165.200 291.960,165.200 292.400 C 165.200 292.840,165.020 293.200,164.800 293.200 C 164.580 293.200,164.400 293.478,164.400 293.817 C 164.400 294.156,164.040 294.820,163.600 295.292 C 163.160 295.764,162.800 296.387,162.800 296.675 C 162.800 296.964,162.620 297.200,162.400 297.200 C 162.180 297.200,162.000 297.560,162.000 298.000 C 162.000 298.440,161.820 298.800,161.600 298.800 C 161.380 298.800,161.200 299.120,161.200 299.512 C 161.200 299.903,160.840 300.483,160.400 300.800 C 159.960 301.117,159.600 301.697,159.600 302.088 C 159.600 302.480,159.420 302.800,159.200 302.800 C 158.980 302.800,158.800 303.160,158.800 303.600 C 158.800 304.040,158.620 304.400,158.400 304.400 C 158.180 304.400,158.000 304.760,158.000 305.200 C 158.000 305.640,157.820 306.000,157.600 306.000 C 157.380 306.000,157.200 306.540,157.200 307.200 L 157.200 308.400 241.200 308.400 C 324.933 308.400,325.200 308.397,325.200 307.600 C 325.200 307.160,325.020 306.800,324.800 306.800 C 324.580 306.800,324.400 306.440,324.400 306.000 C 324.400 305.560,324.220 305.200,324.000 305.200 C 323.780 305.200,323.600 304.840,323.600 304.400 C 323.600 303.960,323.420 303.600,323.200 303.600 C 322.980 303.600,322.800 303.280,322.800 302.888 C 322.800 302.497,322.440 301.917,322.000 301.600 C 321.560 301.283,321.200 300.703,321.200 300.312 C 321.200 299.920,321.020 299.600,320.800 299.600 C 320.580 299.600,320.400 299.240,320.400 298.800 C 320.400 298.360,320.220 298.000,320.000 298.000 C 319.780 298.000,319.600 297.764,319.600 297.475 C 319.600 297.187,319.240 296.564,318.800 296.092 C 318.360 295.620,318.000 294.956,318.000 294.617 C 318.000 294.278,317.820 294.000,317.600 294.000 C 317.380 294.000,317.200 293.640,317.200 293.200 C 317.200 292.760,317.020 292.400,316.800 292.400 C 316.580 292.400,316.400 292.164,316.400 291.875 C 316.400 291.587,316.040 290.964,315.600 290.492 C 315.160 290.020,314.800 289.356,314.800 289.017 C 314.800 288.678,314.620 288.400,314.400 288.400 C 314.180 288.400,314.000 288.080,314.000 287.688 C 314.000 287.297,313.640 286.717,313.200 286.400 C 312.760 286.083,312.400 285.503,312.400 285.112 C 312.400 284.720,312.220 284.400,312.000 284.400 C 311.780 284.400,311.600 284.040,311.600 283.600 C 311.600 283.160,311.420 282.800,311.200 282.800 C 310.980 282.800,310.800 282.480,310.800 282.088 C 310.800 281.697,310.440 281.117,310.000 280.800 C 309.560 280.483,309.200 279.903,309.200 279.512 C 309.200 279.120,309.020 278.800,308.800 278.800 C 308.580 278.800,308.400 278.440,308.400 278.000 C 308.400 277.560,308.220 277.200,308.000 277.200 C 307.780 277.200,307.600 276.880,307.600 276.488 C 307.600 276.097,307.240 275.517,306.800 275.200 C 306.360 274.883,306.000 274.303,306.000 273.912 C 306.000 273.520,305.820 273.200,305.600 273.200 C 305.380 273.200,305.200 272.840,305.200 272.400 C 305.200 271.960,305.020 271.600,304.800 271.600 C 304.580 271.600,304.400 271.364,304.400 271.075 C 304.400 270.787,304.040 270.164,303.600 269.692 C 303.160 269.220,302.800 268.556,302.800 268.217 C 302.800 267.878,302.620 267.600,302.400 267.600 C 302.180 267.600,302.000 267.240,302.000 266.800 C 302.000 266.360,301.820 266.000,301.600 266.000 C 301.380 266.000,301.200 265.764,301.200 265.475 C 301.200 265.187,300.840 264.564,300.400 264.092 C 299.960 263.620,299.600 262.956,299.600 262.617 C 299.600 262.278,299.420 262.000,299.200 262.000 C 298.980 262.000,298.800 261.680,298.800 261.288 C 298.800 260.897,298.440 260.317,298.000 260.000 C 297.560 259.683,297.200 259.103,297.200 258.712 C 297.200 258.320,297.020 258.000,296.800 258.000 C 296.580 258.000,296.400 257.640,296.400 257.200 C 296.400 256.760,296.220 256.400,296.000 256.400 C 295.780 256.400,295.600 256.080,295.600 255.688 C 295.600 255.297,295.240 254.717,294.800 254.400 C 294.360 254.083,294.000 253.503,294.000 253.112 C 294.000 252.720,293.820 252.400,293.600 252.400 C 293.380 252.400,293.200 252.040,293.200 251.600 C 293.200 251.160,293.020 250.800,292.800 250.800 C 292.580 250.800,292.400 250.564,292.400 250.275 C 292.400 249.987,292.040 249.364,291.600 248.892 C 291.160 248.420,290.800 247.756,290.800 247.417 C 290.800 247.078,290.620 246.800,290.400 246.800 C 290.180 246.800,290.000 246.440,290.000 246.000 C 290.000 245.560,289.820 245.200,289.600 245.200 C 289.380 245.200,289.200 244.964,289.200 244.675 C 289.200 244.387,288.840 243.764,288.400 243.292 C 287.960 242.820,287.600 242.156,287.600 241.817 C 287.600 241.478,287.420 241.200,287.200 241.200 C 286.980 241.200,286.800 240.880,286.800 240.488 C 286.800 240.097,286.440 239.517,286.000 239.200 C 285.560 238.883,285.200 238.303,285.200 237.912 C 285.200 237.520,285.020 237.200,284.800 237.200 C 284.580 237.200,284.400 236.840,284.400 236.400 C 284.400 235.960,284.220 235.600,284.000 235.600 C 283.780 235.600,283.600 235.280,283.600 234.888 C 283.600 234.497,283.240 233.917,282.800 233.600 C 282.360 233.283,282.000 232.703,282.000 232.312 C 282.000 231.920,281.820 231.600,281.600 231.600 C 281.380 231.600,281.200 231.240,281.200 230.800 C 281.200 230.360,281.020 230.000,280.800 230.000 C 280.580 230.000,280.400 229.680,280.400 229.288 C 280.400 228.897,280.040 228.317,279.600 228.000 C 279.160 227.683,278.800 227.103,278.800 226.712 C 278.800 226.320,278.620 226.000,278.400 226.000 C 278.180 226.000,278.000 225.640,278.000 225.200 C 278.000 224.760,277.820 224.400,277.600 224.400 C 277.380 224.400,277.200 224.164,277.200 223.875 C 277.200 223.587,276.840 222.964,276.400 222.492 C 275.960 222.020,275.600 221.356,275.600 221.017 C 275.600 220.678,275.420 220.400,275.200 220.400 C 274.980 220.400,274.800 220.040,274.800 219.600 C 274.800 219.160,274.620 218.800,274.400 218.800 C 274.180 218.800,274.000 218.564,274.000 218.275 C 274.000 217.987,273.640 217.364,273.200 216.892 C 272.760 216.420,272.400 215.756,272.400 215.417 C 272.400 215.078,272.220 214.800,272.000 214.800 C 271.780 214.800,271.600 214.480,271.600 214.088 C 271.600 213.697,271.240 213.117,270.800 212.800 C 270.360 212.483,270.000 211.903,270.000 211.512 C 270.000 211.120,269.820 210.800,269.600 210.800 C 269.380 210.800,269.200 210.440,269.200 210.000 C 269.200 209.560,269.020 209.200,268.800 209.200 C 268.580 209.200,268.400 208.880,268.400 208.488 C 268.400 208.097,268.040 207.517,267.600 207.200 C 267.160 206.883,266.800 206.303,266.800 205.912 C 266.800 205.520,266.620 205.200,266.400 205.200 C 266.180 205.200,266.000 204.840,266.000 204.400 C 266.000 203.960,265.820 203.600,265.600 203.600 C 265.380 203.600,265.200 203.280,265.200 202.888 C 265.200 202.497,264.840 201.917,264.400 201.600 C 263.960 201.283,263.600 200.703,263.600 200.312 C 263.600 199.920,263.420 199.600,263.200 199.600 C 262.980 199.600,262.800 199.240,262.800 198.800 C 262.800 198.360,262.620 198.000,262.400 198.000 C 262.180 198.000,262.000 197.764,262.000 197.475 C 262.000 197.187,261.640 196.564,261.200 196.092 C 260.760 195.620,260.400 194.956,260.400 194.617 C 260.400 194.278,260.220 194.000,260.000 194.000 C 259.780 194.000,259.600 193.680,259.600 193.288 C 259.600 192.897,259.240 192.317,258.800 192.000 C 258.360 191.683,258.000 191.103,258.000 190.712 C 258.000 190.320,257.820 190.000,257.600 190.000 C 257.380 190.000,257.200 189.640,257.200 189.200 C 257.200 188.760,257.020 188.400,256.800 188.400 C 256.580 188.400,256.400 188.080,256.400 187.688 C 256.400 187.297,256.040 186.717,255.600 186.400 C 255.160 186.083,254.800 185.503,254.800 185.112 C 254.800 184.720,254.620 184.400,254.400 184.400 C 254.180 184.400,254.000 184.040,254.000 183.600 C 254.000 183.160,253.820 182.800,253.600 182.800 C 253.380 182.800,253.200 182.480,253.200 182.088 C 253.200 181.697,252.840 181.117,252.400 180.800 C 251.960 180.483,251.600 179.903,251.600 179.512 C 251.600 179.120,251.420 178.800,251.200 178.800 C 250.980 178.800,250.800 178.440,250.800 178.000 C 250.800 177.560,250.620 177.200,250.400 177.200 C 250.180 177.200,250.000 176.964,250.000 176.675 C 250.000 176.387,249.640 175.764,249.200 175.292 C 248.760 174.820,248.400 174.156,248.400 173.817 C 248.400 173.478,248.220 173.200,248.000 173.200 C 247.780 173.200,247.600 172.840,247.600 172.400 C 247.600 171.960,247.420 171.600,247.200 171.600 C 246.980 171.600,246.800 171.364,246.800 171.075 C 246.800 170.787,246.440 170.164,246.000 169.692 C 245.560 169.220,245.200 168.556,245.200 168.217 C 245.200 167.878,245.020 167.600,244.800 167.600 C 244.580 167.600,244.400 167.280,244.400 166.888 C 244.400 166.497,244.040 165.917,243.600 165.600 C 243.160 165.283,242.800 164.703,242.800 164.312 C 242.800 163.920,242.620 163.600,242.400 163.600 C 242.180 163.600,242.000 163.240,242.000 162.800 C 242.000 162.360,241.820 162.000,241.600 162.000 C 241.380 162.000,241.200 161.680,241.200 161.288 C 241.200 160.897,240.840 160.317,240.400 160.000 C 239.960 159.683,239.600 159.103,239.600 158.712 C 239.600 158.320,239.420 158.000,239.200 158.000 C 238.980 158.000,238.800 157.640,238.800 157.200 C 238.800 156.760,238.620 156.400,238.400 156.400 C 238.180 156.400,238.000 156.080,238.000 155.688 C 238.000 155.297,237.640 154.717,237.200 154.400 C 236.760 154.083,236.400 153.503,236.400 153.112 C 236.400 152.720,236.220 152.400,236.000 152.400 C 235.780 152.400,235.600 152.040,235.600 151.600 C 235.600 151.160,235.420 150.800,235.200 150.800 C 234.980 150.800,234.800 150.564,234.800 150.275 C 234.800 149.987,234.440 149.364,234.000 148.892 C 233.560 148.420,233.200 147.756,233.200 147.417 C 233.200 147.078,233.020 146.800,232.800 146.800 C 232.580 146.800,232.400 146.440,232.400 146.000 C 232.400 145.560,232.220 145.200,232.000 145.200 C 231.780 145.200,231.600 144.964,231.600 144.675 C 231.600 144.387,231.240 143.764,230.800 143.292 C 230.360 142.820,230.000 142.156,230.000 141.817 C 230.000 141.478,229.820 141.200,229.600 141.200 C 229.380 141.200,229.200 140.880,229.200 140.488 C 229.200 140.097,228.840 139.517,228.400 139.200 C 227.960 138.883,227.600 138.303,227.600 137.912 C 227.600 137.520,227.420 137.200,227.200 137.200 C 226.980 137.200,226.800 136.840,226.800 136.400 C 226.800 135.960,226.620 135.600,226.400 135.600 C 226.180 135.600,226.000 135.280,226.000 134.888 C 226.000 134.497,225.640 133.917,225.200 133.600 C 224.760 133.283,224.400 132.703,224.400 132.312 C 224.400 131.920,224.220 131.600,224.000 131.600 C 223.780 131.600,223.600 131.240,223.600 130.800 C 223.600 130.360,223.420 130.000,223.200 130.000 C 222.980 130.000,222.800 129.764,222.800 129.475 C 222.800 129.187,222.440 128.564,222.000 128.092 C 221.560 127.620,221.200 126.956,221.200 126.617 C 221.200 126.278,221.020 126.000,220.800 126.000 C 220.580 126.000,220.400 125.640,220.400 125.200 C 220.400 124.760,220.220 124.400,220.000 124.400 C 219.780 124.400,219.600 124.164,219.600 123.875 C 219.600 123.587,219.240 122.964,218.800 122.492 C 218.360 122.020,218.000 121.356,218.000 121.017 C 218.000 120.678,217.820 120.400,217.600 120.400 C 217.380 120.400,217.200 120.080,217.200 119.688 C 217.200 119.297,216.840 118.717,216.400 118.400 C 215.960 118.083,215.600 117.503,215.600 117.112 C 215.600 116.720,215.420 116.400,215.200 116.400 C 214.980 116.400,214.800 116.040,214.800 115.600 C 214.800 115.160,214.620 114.800,214.400 114.800 C 214.180 114.800,214.000 114.480,214.000 114.088 C 214.000 113.697,213.640 113.117,213.200 112.800 C 212.760 112.483,212.400 111.903,212.400 111.512 C 212.400 111.120,212.220 110.800,212.000 110.800 C 211.780 110.800,211.600 110.440,211.600 110.000 C 211.600 109.560,211.420 109.200,211.200 109.200 C 210.980 109.200,210.800 108.880,210.800 108.488 C 210.800 108.097,210.440 107.517,210.000 107.200 C 209.560 106.883,209.200 106.303,209.200 105.912 C 209.200 105.520,209.020 105.200,208.800 105.200 C 208.580 105.200,208.400 104.840,208.400 104.400 C 208.400 103.960,208.220 103.600,208.000 103.600 C 207.780 103.600,207.600 103.364,207.600 103.075 C 207.600 102.787,207.240 102.164,206.800 101.692 C 206.360 101.220,206.000 100.556,206.000 100.217 C 206.000 99.878,205.820 99.600,205.600 99.600 C 205.380 99.600,205.200 99.240,205.200 98.800 C 205.200 98.360,205.020 98.000,204.800 98.000 C 204.580 98.000,204.400 97.764,204.400 97.475 C 204.400 97.187,204.040 96.564,203.600 96.092 C 203.160 95.620,202.800 94.956,202.800 94.617 C 202.800 94.278,202.620 94.000,202.400 94.000 C 202.180 94.000,202.000 93.717,202.000 93.371 C 202.000 91.396,199.154 90.952,198.336 92.800 "
              stroke="none" fill="#fafafa" fill-rule="evenodd"></path>
        <path id="path1" d="" stroke="none" fill="#fafafa" fill-rule="evenodd"></path>
        <path id="path2" d="" stroke="none" fill="#fafafa" fill-rule="evenodd"></path>
        <path id="path3" d="" stroke="none" fill="#fafafa" fill-rule="evenodd"></path>
        <path id="path4" d="" stroke="none" fill="#fafafa" fill-rule="evenodd"></path>
    </g>
</svg>